<svg width="76" height="85" viewBox="0 0 76 85" fill="none" xmlns="http://www.w3.org/2000/svg">
<path d="M31.9957 70.3736C32.0392 70.4354 32.0736 70.5018 32.1034 70.566C33.8928 73.8606 36.9835 76.862 40.6492 79.0362C44.2325 81.1601 48.3404 82.4729 52.2972 82.4729C57.7133 82.4729 62.9782 80.2208 66.8434 76.6031C70.5572 73.1298 72.9721 68.3987 72.9721 63.2139V43.9274V21.6898C72.9721 20.487 72.6033 19.4148 71.9411 18.6747C71.3545 18.0149 70.5046 17.6093 69.4598 17.6093C68.4128 17.6093 67.5651 18.0149 66.9762 18.6747C66.3141 19.4147 65.9452 20.487 65.9452 21.6898V44.7774C65.9452 45.4738 65.3793 46.0397 64.6828 46.0397C63.984 46.0397 63.4182 45.4738 63.4182 44.7774V21.6898V10.8254C63.4182 9.66838 63.0035 8.62364 62.3024 7.88134C61.6379 7.18026 60.7055 6.74494 59.6218 6.74494C58.5358 6.74494 57.6033 7.178 56.9389 7.88134C56.2401 8.61903 55.8255 9.66386 55.8255 10.8254V43.0773C55.8255 43.7761 55.2595 44.342 54.5631 44.342C53.8643 44.342 53.2983 43.776 53.2983 43.0773V10.8254V6.60519C53.2983 5.48714 52.8379 4.46527 52.1002 3.72758L52.0429 3.66566C51.3097 2.96006 50.3131 2.527 49.218 2.527C48.0976 2.527 47.078 2.98527 46.338 3.72523C45.598 4.46526 45.1398 5.48487 45.1398 6.60519V12.4521C45.1398 12.546 45.1283 12.6377 45.11 12.727C45.1284 12.9355 45.1398 13.1439 45.1398 13.3571V41.0978C45.1398 41.7943 44.5738 42.3602 43.8752 42.3602C43.1786 42.3602 42.6128 41.7943 42.6128 41.0978V13.3572C42.6128 12.2391 42.1522 11.2172 41.4122 10.4772C40.6722 9.73716 39.6525 9.27662 38.5322 9.27662C37.4119 9.27662 36.3923 9.73708 35.6523 10.4772H35.6477C34.91 11.2127 34.454 12.2322 34.454 13.3572V52.5533C34.454 53.2499 33.8881 53.8157 33.1893 53.8157C33.1527 53.8157 33.1161 53.8135 33.0816 53.8111L33.061 53.8088C32.6945 53.7768 32.3461 53.5866 32.1263 53.259L25.5347 43.4759C24.7924 42.3717 23.6652 41.6752 22.4509 41.4369C21.2321 41.2009 19.9239 41.4232 18.8219 42.1655C17.7222 42.9079 17.0234 44.0351 16.7874 45.2493C16.5491 46.4681 16.7713 47.7787 17.5136 48.8784L31.9957 70.3736ZM29.8925 71.7688L15.4219 50.2897C14.2924 48.6126 13.951 46.624 14.3107 44.7751C14.6727 42.9215 15.7357 41.2033 17.4106 40.0737C19.09 38.9442 21.0787 38.6005 22.9253 38.9603C24.7789 39.3223 26.4949 40.3853 27.6267 42.0647L31.9271 48.4477V13.3572C31.9271 11.5426 32.6717 9.89299 33.87 8.69242L33.8676 8.69016C35.0636 7.49419 36.7155 6.75189 38.5324 6.75189C40.0698 6.75189 41.4879 7.2834 42.6128 8.17005V6.60527C42.6128 4.78848 43.3551 3.1365 44.5534 1.94053C45.7493 0.742298 47.4012 0 49.2181 0C50.9938 0 52.6136 0.712473 53.8049 1.86722L53.885 1.94053C54.8496 2.90283 55.5186 4.1629 55.7431 5.56513C56.7948 4.7197 58.1259 4.21794 59.6219 4.21794C61.4342 4.21794 63.0014 4.95571 64.1262 6.14473C65.2695 7.35226 65.9454 9.01322 65.9454 10.8255V16.221C66.9007 15.5017 68.0876 15.0824 69.4599 15.0824C71.2698 15.0824 72.7591 15.8132 73.8176 16.9977C74.8967 18.2051 75.4993 19.873 75.4993 21.6899V43.9274V63.2139C75.4993 69.1295 72.766 74.5068 68.5596 78.4383C64.2408 82.4798 58.3549 85 52.2973 85C47.8777 85 43.3184 83.5498 39.3663 81.206C35.3294 78.814 31.9064 75.4689 29.8925 71.7688Z" fill="white"/>
<path d="M24.9529 22.2664L24.9528 22.263C24.9438 21.6032 24.3965 21.0817 23.7354 21.0817C23.068 21.0817 22.5179 21.6129 22.5179 22.279V26.6872C22.5179 27.4162 21.9129 28.0161 21.1555 28.0161H16.6406C15.9732 28.0161 15.4232 28.5472 15.4232 29.2134C15.4232 29.8796 15.9732 30.4107 16.6406 30.4107H21.1555C23.2477 30.4107 24.9528 28.7486 24.9528 26.6872L24.9529 22.2664ZM21.1555 6.73462H16.6406C15.9736 6.73462 15.4232 7.2648 15.4232 7.93058C15.4232 8.59636 15.9736 9.12655 16.6406 9.12655H21.1555C21.9133 9.12655 22.5179 9.72575 22.5179 10.4532V14.8676C22.5179 15.5334 23.0683 16.0636 23.7354 16.0636C24.4024 16.0636 24.9528 15.5334 24.9528 14.8676V10.4532C24.9528 8.3942 23.2474 6.73462 21.1555 6.73462ZM9.06219 28.0188H4.54736C3.78958 28.0188 3.18493 27.4196 3.18493 26.6922V22.2777C3.18493 21.8477 2.95029 21.4531 2.57409 21.2408C2.19848 21.0287 1.73644 21.0287 1.36083 21.2408C0.984636 21.4531 0.75 21.8477 0.75 22.2777V26.6922C0.75 28.7511 2.45546 30.4107 4.54736 30.4107H9.06219C9.72925 30.4107 10.2797 29.8805 10.2797 29.2148C10.2797 28.549 9.72925 28.0188 9.06219 28.0188ZM9.06219 6.73462H4.54736C2.45546 6.73462 0.75 8.3942 0.75 10.4532V14.8676C0.75 15.5334 1.3004 16.0636 1.96746 16.0636C2.63452 16.0636 3.18493 15.5334 3.18493 14.8676V10.4532C3.18493 9.72575 3.78958 9.12655 4.54736 9.12655H9.06219C9.72925 9.12655 10.2797 8.59636 10.2797 7.93058C10.2797 7.2648 9.72925 6.73462 9.06219 6.73462Z" fill="white" stroke="white" stroke-width="0.5"/>
</svg>
